<?xml version="1.0" encoding="UTF-8"?>
<svg id="LetterVanDeDag" data-name="Letter van de Dag" xmlns="http://www.w3.org/2000/svg" viewBox="0 0 484.01 484.01">
  <defs>
    <style>
      .cls-1 {
        fill: none;
        stroke: #ff7f00;
        stroke-linecap: round;
        stroke-linejoin: round;
        stroke-width: 29px;
      }

      .cls-2 {
        fill: #ff7f00;
      }
    </style>
  </defs>
  <path id="Calendar" class="cls-2" d="M427.86,59.02h-27.15v40.59c0,6.66-1.68,12.93-4.66,18.4-1.79,3.29-4.03,6.29-6.66,8.93-7,6.99-16.66,11.32-27.34,11.32-14.67,0-27.45-8.19-33.98-20.25-2.98-5.47-4.66-11.74-4.66-18.4v-40.59h-163.27v40.59c0,6.66-1.68,12.93-4.66,18.4-1.79,3.29-4.03,6.29-6.66,8.93-7,6.99-16.66,11.32-27.34,11.32-14.67,0-27.45-8.19-33.98-20.25-2.98-5.47-4.66-11.74-4.66-18.4v-40.59h-26.69C25.2,59.02,0,84.22,0,115.18v303.57c0,30.96,25.2,56.14,56.15,56.14h371.7c30.96,0,56.15-25.18,56.15-56.14V115.18c0-30.96-25.2-56.15-56.15-56.15ZM463.75,418.75c0,19.79-16.11,35.88-35.9,35.88H56.15c-19.79,0-35.9-16.09-35.9-35.88v-222.01h443.49v222.01Z"/>
  <polyline id="Z" class="cls-1" points="170.56 249.91 313.95 249.91 169.03 396.86 307.34 396.86"/>
  <rect id="RingL" class="cls-2" x="95.05" y="0" width="52.88" height="125.06" rx="26.44" ry="26.44"/>
  <rect id="RingR" class="cls-2" x="335.62" y="0" width="52.88" height="125.06" rx="26.44" ry="26.44"/>
</svg>